<?xml version="1.0" encoding="UTF-8"?>
<svg width="263px" height="199px" viewBox="0 0 263 199" version="1.1" xmlns="http://www.w3.org/2000/svg" xmlns:xlink="http://www.w3.org/1999/xlink">
    <!-- Generator: Sketch 43.2 (39069) - http://www.bohemiancoding.com/sketch -->
    <title>Shape</title>
    <desc>Created with Sketch.</desc>
    <defs></defs>
    <g id="Logo" stroke="none" stroke-width="1" fill="none" fill-rule="evenodd">
        <g id="Artboard" transform="translate(-71.000000, -63.000000)" fill-rule="nonzero" fill="#80C0D1">
            <g id="geometric" transform="translate(208.515154, 164.700865) rotate(97.000000) translate(-208.515154, -164.700865) translate(106.015154, 33.700865)">
                <path d="M191.231125,63.284 C191.196625,63.0171304 191.06725,62.7846957 190.903375,62.5809565 L190.926375,62.5637391 L141.255,0.971391304 L141.206125,1.00869565 C140.935875,0.678695652 140.5765,0.434782609 140.136625,0.434782609 L140.1165,0.434782609 C139.998625,0.437652174 139.906625,0.509391304 139.797375,0.540956522 L139.780125,0.480695652 L28.74475,28.8635652 L28.753375,28.8951304 C28.684375,28.9123478 28.609625,28.9037391 28.546375,28.9324348 C28.13525,29.1046087 27.827625,29.4575652 27.712625,29.8851304 L0.7825,130.388783 C0.635875,130.93687 0.8285,131.52513 1.274125,131.880957 L50.014,170.780783 L59.329,229.311304 L59.349125,229.308435 C59.375,229.454783 59.400875,229.604 59.469875,229.73887 C59.648125,230.086087 59.9615,230.347217 60.338125,230.45913 L163.855375,261.502087 C163.993375,261.54513 164.131375,261.562348 164.269375,261.562348 C164.792625,261.562348 165.287125,261.275391 165.540125,260.793304 C165.563125,260.750261 165.563125,260.710087 165.580375,260.667043 L165.597625,260.672783 L204.16,167.147913 L204.139875,167.139304 C204.231875,166.915478 204.289375,166.677304 204.25775,166.421913 L191.231125,63.284 Z M43.634375,112.408087 L68.66125,100.370261 L71.09925,104.513913 L43.9305,114.258957 L43.634375,112.408087 Z M41.173375,115.246087 L27.643625,120.098522 L40.929,113.70513 L41.173375,115.246087 Z M167.242125,69.046087 L172.8455,68.0245217 L167.57275,69.9126957 L167.242125,69.046087 Z M110.7685,90.2866087 L113.065625,83.7124348 L114.5405,88.9350435 L110.7685,90.2866087 Z M115.319625,91.7041739 L116.906625,97.34 L111.4815,93.0844348 L115.319625,91.7041739 Z M115.681875,82.3895652 L120.233,86.891913 L117.251625,87.9622609 L115.681875,82.3895652 Z M115.78825,78.4525217 L164.36425,69.5712174 L164.8645,70.8826087 L123.22875,85.8158261 L115.78825,78.4525217 Z M110.345875,80.3206087 L107.131625,89.6696522 L100.96475,84.8286957 L110.345875,80.3206087 Z M98.452,82.8573043 L44.876375,40.8066957 L109.722,77.4366957 L98.452,82.8573043 Z M92.863,141.528435 L95.470625,145.967652 L91.55775,145.267478 L92.863,141.528435 Z M94.107875,137.970174 L109.1585,94.9037391 L118.22625,102.020261 L128.774625,139.453739 L120.25025,150.392522 L99.1995,146.630522 L94.107875,137.970174 Z M122.0615,105.030435 L142.87075,121.36113 L130.965375,136.635826 L122.0615,105.030435 Z M129.740625,142.885739 L132.469,152.576261 L123.444375,150.963565 L129.740625,142.885739 Z M131.931375,140.070696 L145.127625,123.134522 L177.32475,148.406783 L175.778,160.309739 L135.61425,153.135826 L131.931375,140.070696 Z M179.955375,150.47 L197.421,164.175043 L178.61275,160.814783 L179.955375,150.47 Z M180.386625,147.161391 L180.472875,146.498522 L184.05225,150.039565 L180.386625,147.161391 Z M177.756,145.095304 L146.89,120.873304 L150.2365,116.580435 L177.902625,143.956087 L177.756,145.095304 Z M144.633125,119.102783 L120.739,100.353043 L118.03075,90.7313913 L122.495625,89.1301739 L148.18375,114.543043 L144.633125,119.102783 Z M125.491375,88.054087 L165.888,73.5656522 L170.554125,85.8330435 L149.9605,112.261739 L125.491375,88.054087 Z M168.5905,72.5957391 L185.630625,66.4864348 L172.62125,83.1786957 L168.5905,72.5957391 Z M166.20425,66.32 L163.61675,59.5162609 L182.2985,63.3786957 L166.20425,66.32 Z M163.32925,66.848 L115.929125,75.514087 L124.352875,51.404 L160.278875,58.8304348 L163.32925,66.848 Z M125.307375,48.6721739 L140.197,6.062 L159.0685,55.648087 L125.307375,48.6721739 Z M112.045,75.4509565 L37.798125,33.5122609 L120.977625,50.7009565 L112.045,75.4509565 Z M95.57125,84.2433043 L69.802625,96.634087 L34.19,36.0661739 L95.57125,84.2433043 Z M67.203625,97.888087 L43.16575,109.449565 L31.7175,37.5382609 L67.203625,97.888087 Z M71.26025,99.1191304 L98.086875,86.2175652 L105.625125,92.1346087 L73.8535,103.529652 L71.26025,99.1191304 Z M105.188125,95.3370435 L91.853875,134.136435 L75.337,106.043391 L105.188125,95.3370435 Z M75.529625,191.143217 L83.522125,197.52513 L64.99275,221.308087 L75.529625,191.143217 Z M76.530125,188.270783 L90.5975,148.010783 L97.38825,149.224609 L107.61175,166.614174 L85.287375,195.261043 L76.530125,188.270783 Z M101.11425,149.890348 L118.255,152.949304 L109.512125,164.169304 L101.11425,149.890348 Z M121.452,153.523217 L133.334375,155.643826 L143.350875,191.192 L129.088,197.46487 L111.076125,166.83513 L121.452,153.523217 Z M144.13575,193.981217 L159.864875,249.805739 L130.55425,199.955652 L144.13575,193.981217 Z M146.795125,192.813304 L173.05825,181.266174 L163.746125,252.976609 L146.795125,192.813304 Z M146.01025,190.021217 L136.4825,156.206261 L175.41,163.159217 L173.492375,177.934609 L146.01025,190.021217 Z M178.24475,163.66713 L197.941375,167.185217 L176.568625,176.583043 L178.24475,163.66713 Z M180.938625,142.917304 L183.82225,120.698261 L199.12875,160.918087 L180.938625,142.917304 Z M178.368375,140.37487 L152.016125,114.29913 L171.750125,88.9752174 L181.66025,115.016522 L178.368375,140.37487 Z M173.81725,86.3208696 L187.7035,68.5008696 L182.445125,108.987565 L173.81725,86.3208696 Z M162.406375,56.3367826 L144.702125,9.82113043 L186.176875,61.2523478 L162.406375,56.3367826 Z M121.96375,47.9777391 L35.475125,30.1032174 L137.8625,3.93278261 L121.96375,47.9777391 Z M40.4575,110.749478 L4.367625,128.110348 L28.741875,37.1451304 L40.4575,110.749478 Z M41.633375,118.13287 L44.617625,136.882609 L7.72275,130.294087 L41.633375,118.13287 Z M44.3905,117.14287 L72.58275,107.033391 L90.623375,137.720522 L88.23425,144.673478 L47.61625,137.419217 L44.3905,117.14287 Z M87.288375,147.422522 L73.957,186.221913 L52.679125,169.236957 L48.090625,140.420783 L87.288375,147.422522 Z M85.7675,199.315739 L99.662375,210.403739 L65.378,225.483304 L85.7675,199.315739 Z M87.529875,197.051652 L109.17575,169.274261 L126.43725,198.627043 L102.6265,209.098087 L87.529875,197.051652 Z M127.9035,201.123565 L159.0915,254.15887 L105.165125,211.124 L127.9035,201.123565 Z M176.1345,179.911739 L200.1465,169.34887 L167.098375,249.498696 L176.1345,179.911739 Z M199.902125,154.854696 L184.607125,114.669304 L189.787875,74.7766087 L199.902125,154.854696 Z M7.489875,133.166522 L45.094875,139.884174 L49.344125,166.574 L7.489875,133.166522 Z M72.968,189.100087 L61.263875,223.167565 L53.349,173.44087 L72.968,189.100087 Z M64.892125,228.832087 L102.19525,212.426783 L157.5735,256.623826 L64.892125,228.832087 Z" id="Shape"></path>
            </g>
        </g>
    </g>
</svg>